<?xml version="1.0" encoding="utf-8"?>
<!-- Generator: Adobe Illustrator 27.0.0, SVG Export Plug-In . SVG Version: 6.00 Build 0)  -->
<svg version="1.1" id="Слой_1" xmlns="http://www.w3.org/2000/svg" xmlns:xlink="http://www.w3.org/1999/xlink" x="0px" y="0px"
	 viewBox="0 0 350 330" enable-background="new 0 0 350 330" xml:space="preserve">
<g id="suitecase-top">
	<path fill="#A67EE5" d="M253.93,232.11c3.142,0,5.69-2.548,5.69-5.69s-2.548-5.69-5.69-5.69c-3.143,0-5.69,2.548-5.69,5.69
		S250.787,232.11,253.93,232.11L253.93,232.11"/>
	<circle fill="none" stroke="#FFFFFF" stroke-width="2" stroke-miterlimit="10" cx="253.93" cy="226.42" r="5.69"/>
	<path fill="#A67EE5" d="M240.3,210.48H67.19c-6.589,0-11.945,5.312-12,11.9V276c0,7.18,5.82,13,13,13l0,0h184v-66.62
		c-0.055-6.565-5.375-11.867-11.94-11.9"/>
	<path fill="none" stroke="#FFFFFF" stroke-width="2" stroke-miterlimit="10" d="M240.3,210.48H67.19c-6.589,0-11.945,5.312-12,11.9
		V276c0,7.18,5.82,13,13,13l0,0h184v-66.62C252.136,215.834,246.846,210.54,240.3,210.48z"/>
	<path fill="none" stroke="#FFFFFF" stroke-width="2" d="M70.24,289v-63.51c0-8.284,6.716-15,15-15l0,0h0.5"/>
</g>
<g id="flowers">
	<path fill="none" stroke="#FFFFFF" stroke-width="2" stroke-linecap="round" stroke-linejoin="round" d="M180.73,277.8
		c0,0,8.3-74.59,39.71-90"/>
	<path fill="#3B7BF2" d="M217.95,187.12l9.27-24.49c3.086,0.373,6.058,1.395,8.72,3c3.595-2.443,8.49-1.508,10.932,2.087
		c2.201,3.24,1.685,7.606-1.212,10.243c0.928,2.966,1.221,6.094,0.86,9.18l-26,3.3c-1.343,0.169-2.568-0.783-2.736-2.125
		c-0.049-0.394-0.003-0.793,0.136-1.165"/>
	<path fill="none" stroke="#FFFFFF" stroke-width="2" stroke-linecap="round" stroke-linejoin="round" d="M178.24,287.63
		c0,0,6.89-44.68,37.95-56.53"/>
	<path fill="#3B7BF2" d="M210.85,232l9-16.47c2.223,0.545,4.31,1.543,6.13,2.93c1.244-0.602,2.658-0.75,4-0.42
		c3.054,0.693,4.968,3.73,4.275,6.784c-0.005,0.022-0.01,0.044-0.015,0.066c-0.339,1.322-1.155,2.472-2.29,3.23
		c0.415,2.182,0.343,4.429-0.21,6.58l-19.34-0.11c-0.972,0.024-1.779-0.745-1.802-1.716c-0.007-0.3,0.062-0.598,0.202-0.864"/>
</g>
<g id="baloon">
	<path fill="#FFFFFF" d="M106.58,161.87l-2.19,3.79c-0.365,0.644-0.138,1.462,0.506,1.826c0.202,0.115,0.431,0.174,0.664,0.174h4.37
		c0.74-0.003,1.337-0.606,1.334-1.346c-0.001-0.229-0.061-0.454-0.174-0.654l-2.18-3.79c-0.377-0.643-1.204-0.86-1.847-0.483
		C106.863,161.504,106.697,161.67,106.58,161.87"/>
	<path fill="#FFFFFF" d="M107.74,79.42c18.164,0.006,32.889,14.726,32.9,32.89c0,18.17-15.09,48.89-33.25,48.89
		s-32.55-30.73-32.55-48.89C74.851,94.146,89.576,79.426,107.74,79.42 M107.74,77.81c-19.045,0.022-34.478,15.455-34.5,34.5
		c0,9.51,3.8,22.1,9.68,32.07c7,11.88,15.68,18.42,24.46,18.42s17.6-6.54,24.81-18.4c6.1-10,10.05-22.64,10.05-32.09
		C142.218,93.265,126.785,77.832,107.74,77.81"/>
	<path fill="#76ABFF" d="M96.06,112.39c0-18.16,5.23-32.89,11.68-32.89c-18.164,0.006-32.889,14.726-32.9,32.89
		c0,18.17,14.38,48.89,32.55,48.89h0.17C101.13,161.09,96.06,130.51,96.06,112.39"/>
	<path fill="#1553B7" d="M140.64,112.39c-0.011-18.164-14.736-32.884-32.9-32.89c6.45,0,11.68,14.73,11.68,32.89
		s-5.29,48.48-11.68,48.87C125.74,160.87,140.64,130.44,140.64,112.39"/>
	<path fill="#3B7BF2" d="M119.42,112.39c0-18.16-5.23-32.89-11.68-32.89s-11.68,14.73-11.68,32.89s5.07,48.69,11.5,48.89h0.18
		c6.39-0.4,11.68-30.83,11.68-48.88"/>
	<path fill="#FFFFFF" d="M100.54,105.36c-3.148,0-5.7,2.552-5.7,5.7s2.552,5.7,5.7,5.7c3.148,0,5.7-2.552,5.7-5.7v0
		c0.176-2.972-2.089-5.524-5.061-5.7C100.966,105.347,100.753,105.347,100.54,105.36 M100.54,113.36c-1.86,0-3.06-0.93-3.06-2.29
		s1.21-2.29,3.06-2.29s3.07,0.93,3.07,2.29S102.36,113.36,100.54,113.36"/>
	<path fill="#FFFFFF" d="M114.74,105.36c0.983-0.001,1.781,0.796,1.781,1.779c0,0.365-0.112,0.722-0.321,1.021l-13.33,19.34
		c-0.647,0.747-1.778,0.828-2.525,0.181c-0.627-0.543-0.799-1.446-0.415-2.181l13.34-19.34c0.332-0.485,0.883-0.773,1.47-0.77"/>
	<path fill="#FFFFFF" d="M116.21,116.88c-3.148,0-5.7,2.552-5.7,5.7s2.552,5.7,5.7,5.7c3.148,0,5.7-2.552,5.7-5.7v0
		c0.171-2.977-2.105-5.529-5.082-5.7C116.622,116.868,116.416,116.868,116.21,116.88 M116.21,124.88c-1.86,0-3.06-0.93-3.06-2.29
		s1.21-2.29,3.06-2.29s3.07,0.9,3.07,2.29S118.07,124.88,116.21,124.88"/>
</g>
<line id="baloon-string" fill="none" stroke="#FFFFFF" stroke-width="2" stroke-linecap="round" stroke-miterlimit="10" x1="107.65" y1="166.71" x2="107.65" y2="289.02"/>
<g id="suitcase-bottom">
	<path fill="#A67EE5" d="M280.29,318.62c3.142,0.331,5.957-1.947,6.288-5.088c0.331-3.142-1.947-5.957-5.088-6.288
		c-3.142-0.331-5.957,1.947-6.288,5.088c-0.021,0.199-0.031,0.399-0.032,0.598C275.022,315.912,277.309,318.453,280.29,318.62"/>
	<ellipse fill="none" stroke="#FFFFFF" stroke-width="2" stroke-miterlimit="10" cx="280.29" cy="312.93" rx="5.12" ry="5.69"/>
	<path fill="#A67EE5" d="M230.22,328.86h-148c-6.514,0.056-11.851-5.157-11.95-11.67V289h171.89v28.17
		c-0.093,6.512-5.428,11.726-11.94,11.67"/>
	<path fill="none" stroke="#FFFFFF" stroke-width="2" stroke-miterlimit="10" d="M230.22,328.86h-148
		c-6.514,0.056-11.851-5.157-11.95-11.67V289h171.89v28.17C242.078,323.69,236.74,328.916,230.22,328.86z"/>
	<path fill="#A67EE5" d="M266.72,328.86h-147c-6.492,0.033-11.793-5.179-11.87-11.67V289h170.73v28.17
		c-0.066,6.492-5.368,11.709-11.86,11.67"/>
	<path fill="none" stroke="#FFFFFF" stroke-width="2" stroke-miterlimit="10" d="M266.72,328.86h-147
		c-6.492,0.033-11.793-5.179-11.87-11.67V289h170.73v28.17C278.525,323.67,273.22,328.899,266.72,328.86z"/>
	<path fill="#A67EE5" d="M215,314.07h-34.51c-2.347,0.045-4.29-1.813-4.35-4.16v-11.7c0.011-0.685,0.575-1.231,1.259-1.22
		c0.004,0,0.007,0,0.011,0h2.88c0.687-0.011,1.254,0.534,1.27,1.22v10c0.022,0.727,0.623,1.301,1.35,1.29h29.71
		c0.727,0.011,1.328-0.563,1.35-1.29v-10c0.011-0.685,0.575-1.231,1.259-1.22c0.004,0,0.007,0,0.011,0h2.88
		c0.687-0.011,1.254,0.534,1.27,1.22v11.69c-0.06,2.347-2.003,4.205-4.35,4.16"/>
	<path fill="none" stroke="#FFFFFF" stroke-width="2" stroke-miterlimit="10" d="M215,314.07h-34.51
		c-2.347,0.045-4.29-1.813-4.35-4.16v-11.7c0.011-0.685,0.575-1.231,1.259-1.22c0.004,0,0.007,0,0.011,0h2.88
		c0.687-0.011,1.254,0.534,1.27,1.22v10c0.022,0.727,0.623,1.301,1.35,1.29h29.71c0.727,0.011,1.328-0.563,1.35-1.29v-10
		c0.011-0.685,0.575-1.231,1.259-1.22c0.004,0,0.007,0,0.011,0h2.88c0.687-0.011,1.254,0.534,1.27,1.22v11.69
		c-0.054,2.358-2.01,4.225-4.367,4.171C215.015,314.07,215.008,314.07,215,314.07z"/>
	<rect x="138.58" y="282.19" fill="#A67EE5" width="9.1" height="12.52"/>
	<rect x="138.58" y="282.19" fill="none" stroke="#FFFFFF" stroke-width="2" stroke-miterlimit="10" width="9.1" height="12.52"/>
	<rect x="247.85" y="282.19" fill="#A67EE5" width="9.1" height="12.52"/>
	<rect x="247.85" y="282.19" fill="none" stroke="#FFFFFF" stroke-width="2" stroke-miterlimit="10" width="9.1" height="12.52"/>
	<path fill="#A67EE5" d="M278.58,317.11v-9.87h-10.4c-3.128,0.076-5.603,2.672-5.53,5.8v15.82h4.73
		C273.54,328.86,278.58,323.57,278.58,317.11"/>
	<path fill="none" stroke="#FFFFFF" stroke-width="2" stroke-miterlimit="10" d="M278.58,317.11v-9.87h-10.4
		c-3.128,0.076-5.603,2.672-5.53,5.8v15.82h4.73C273.54,328.86,278.58,323.58,278.58,317.11z"/>
	<path fill="#A67EE5" d="M100,301.54H79.22c-0.552,0-1-0.448-1-1V298c0-0.552,0.448-1,1-1H100c0.552,0,1,0.448,1,1v2.58
		c0,0.552-0.448,1-1,1"/>
	<path fill="none" stroke="#FFFFFF" stroke-width="2" stroke-miterlimit="10" d="M100,301.54H79.22c-0.552,0-1-0.448-1-1V298
		c0-0.552,0.448-1,1-1H100c0.552,0,1,0.448,1,1v2.58C100.979,301.117,100.537,301.54,100,301.54z"/>
</g>
<g id="bird">
	<path id="bird-wings" fill="#FFFFFF" d="M279.2,183.8c-0.015-2.293,1.565-4.289,3.8-4.8l0,0l21.07-5.4
		c-7.78,14.84-19.18,15.07-20,15.07l0,0c-2.687-0.027-4.85-2.213-4.85-4.9"/>
	<path id="bird-body" fill="#FFFFFF" d="M262.24,169.86H273c0.726-1.788,2.481-2.942,4.41-2.9c1.391-0.075,2.716,0.595,3.48,1.76
		c0.55,0.811,1.009,1.679,1.37,2.59c0.63,1.57,4,15.8,5.89,19.16c1.1,2,4.39,7.16,4.39,7.16c0.203,0.349,0.309,0.746,0.31,1.15V208
		c0,0-3.11-1.08-3.11-3.91v-6.53c-1.91,0.27-6-1.65-8.33-2.88c-2.89-1.38-5.159-3.791-6.36-6.76c-1.212-2.926-1.251-6.206-0.11-9.16
		c0.468-0.903,0.737-1.895,0.79-2.91c-0.06-1.14-1.39-2.72-2.18-4.05L262.24,169.86z"/>
</g>
<g id="high-leaf">
	<path fill="none" stroke="#3B7BF2" stroke-width="2" stroke-linecap="round" stroke-linejoin="round" d="M141.77,204.16
		c24.1,32.45,35.81,84,35.81,84"/>
	<path fill="#76ABFF" d="M125.73,196.22c6.54,7.51,17.16,9,17.16,9s0-10.72-6.53-18.22s-17.17-9-17.17-9
		S119.19,188.72,125.73,196.22"/>
	<path fill="#3B7BF2" d="M153.17,206.54c-2.69,9.58,1.91,19.27,1.91,19.27s9-5.86,11.67-15.45s-1.91-19.27-1.91-19.27
		S155.84,196.95,153.17,206.54"/>
	<path fill="#3B7BF2" d="M135.82,227.71c9.59,2.7,19.26-1.91,19.26-1.91s-5.86-9-15.45-11.67S120.37,216,120.37,216
		s5.87,9,15.45,11.67"/>
	<path fill="#1553B7" d="M166.1,232.52c-3.41,9.36,0.47,19.35,0.47,19.35s9.39-5.18,12.79-14.53S178.89,218,178.89,218
		s-9.39,5.18-12.79,14.53"/>
	<path fill="#1553B7" d="M147.22,252.35c9.36,3.4,19.35-0.47,19.35-0.47s-5.18-9.39-14.54-12.79s-19.35,0.47-19.35,0.47
		S137.86,248.95,147.22,252.35"/>
</g>
<g id="low-leafs">
	<path fill="#3B7BF2" d="M183.79,264.77c2.3,9.1-2.27,18.12-2.27,18.12s-8.32-5.74-10.63-14.85s2.27-18.12,2.27-18.12
		S181.48,255.67,183.79,264.77"/>
	<path fill="#3B7BF2" d="M199.63,285.16c-9.11,2.31-18.12-2.27-18.12-2.27s5.74-8.32,14.85-10.63s18.12,2.27,18.12,2.27
		S208.73,282.85,199.63,285.16"/>
	<path fill="none" stroke="#3B7BF2" stroke-width="2" stroke-linecap="round" stroke-linejoin="round" d="M188.56,271.67
		c-3.809,5.297-7.253,10.846-10.31,16.61"/>
	<path fill="#76ABFF" d="M203.69,264.19c-6.17,7.08-16.19,8.44-16.19,8.44s0-10.11,6.16-17.18s16.19-8.45,16.19-8.45
		S209.85,257.11,203.69,264.19"/>
</g>
<g>
	
		<line id="bottom-line" fill="none" stroke="#FFFFFF" stroke-width="2" stroke-linecap="round" stroke-linejoin="round" x1="46.24" y1="329" x2="303.76" y2="329"/>
</g>
</svg>
