<svg xmlns="http://www.w3.org/2000/svg" viewBox="0 0 350 330">
  <g id="suitecase-top">
    <path fill="#A67EE5" d="M253.93 232.11a5.69 5.69 0 1 0-.001-11.381 5.69 5.69 0 0 0 .001 11.381"/>
    <circle fill="none" stroke="#FFFFFF" stroke-width="2" stroke-miterlimit="10" cx="253.93" cy="226.42" r="5.69"/>
    <path fill="#A67EE5" d="M240.3 210.48H67.19c-6.589 0-11.945 5.312-12 11.9V276c0 7.18 5.82 13 13 13h184v-66.62c-.055-6.565-5.375-11.867-11.94-11.9"/>
    <path fill="none" stroke="#FFFFFF" stroke-width="2" stroke-miterlimit="10" d="M240.3 210.48H67.19c-6.589 0-11.945 5.312-12 11.9V276c0 7.18 5.82 13 13 13h184v-66.62c-.054-6.546-5.344-11.84-11.89-11.9z"/>
    <path fill="none" stroke="#FFFFFF" stroke-width="2" d="M70.24 289v-63.51c0-8.284 6.716-15 15-15h.5"/>
  </g>
  <g id="flowers">
    <path fill="none" stroke="#FFFFFF" stroke-width="2" stroke-linecap="round" stroke-linejoin="round" d="M180.73 277.8s8.3-74.59 39.71-90"/>
    <path fill="#3B7BF2" d="m217.95 187.12 9.27-24.49a22 22 0 0 1 8.72 3 7.87 7.87 0 0 1 9.72 12.33 22.132 22.132 0 0 1 .86 9.18l-26 3.3a2.449 2.449 0 0 1-2.6-3.29"/>
    <path fill="none" stroke="#FFFFFF" stroke-width="2" stroke-linecap="round" stroke-linejoin="round" d="M178.24 287.63s6.89-44.68 37.95-56.53"/>
    <path fill="#3B7BF2" d="m210.85 232 9-16.47a16.659 16.659 0 0 1 6.13 2.93 5.93 5.93 0 0 1 4-.42 5.67 5.67 0 0 1 4.275 6.784l-.015.066a5.54 5.54 0 0 1-2.29 3.23 15.098 15.098 0 0 1-.21 6.58l-19.34-.11a1.759 1.759 0 0 1-1.6-2.58"/>
  </g>
  <g id="baloon">
    <path fill="#FFFFFF" d="m106.58 161.87-2.19 3.79a1.34 1.34 0 0 0 1.17 2h4.37a1.34 1.34 0 0 0 1.16-2l-2.18-3.79a1.35 1.35 0 0 0-2.33 0"/>
    <path fill="#FFFFFF" d="M107.74 79.42c18.164.006 32.889 14.726 32.9 32.89 0 18.17-15.09 48.89-33.25 48.89s-32.55-30.73-32.55-48.89c.011-18.164 14.736-32.884 32.9-32.89m0-1.61c-19.045.022-34.478 15.455-34.5 34.5 0 9.51 3.8 22.1 9.68 32.07 7 11.88 15.68 18.42 24.46 18.42s17.6-6.54 24.81-18.4c6.1-10 10.05-22.64 10.05-32.09-.022-19.045-15.455-34.478-34.5-34.5"/>
    <path fill="#76ABFF" d="M96.06 112.39c0-18.16 5.23-32.89 11.68-32.89-18.164.006-32.889 14.726-32.9 32.89 0 18.17 14.38 48.89 32.55 48.89h.17c-6.43-.19-11.5-30.77-11.5-48.89"/>
    <path fill="#1553B7" d="M140.64 112.39c-.011-18.164-14.736-32.884-32.9-32.89 6.45 0 11.68 14.73 11.68 32.89s-5.29 48.48-11.68 48.87c18-.39 32.9-30.82 32.9-48.87"/>
    <path fill="#3B7BF2" d="M119.42 112.39c0-18.16-5.23-32.89-11.68-32.89s-11.68 14.73-11.68 32.89 5.07 48.69 11.5 48.89h.18c6.39-.4 11.68-30.83 11.68-48.88"/>
    <path fill="#FFFFFF" d="M100.54 105.36a5.7 5.7 0 1 0 5.7 5.7 5.39 5.39 0 0 0-5.7-5.7m0 8c-1.86 0-3.06-.93-3.06-2.29s1.21-2.29 3.06-2.29 3.07.93 3.07 2.29-1.25 2.29-3.07 2.29M114.74 105.36a1.78 1.78 0 0 1 1.46 2.8l-13.33 19.34a1.79 1.79 0 0 1-2.94-2l13.34-19.34a1.77 1.77 0 0 1 1.47-.77M116.21 116.88a5.7 5.7 0 1 0 5.7 5.7 5.4 5.4 0 0 0-5.7-5.7m0 8c-1.86 0-3.06-.93-3.06-2.29s1.21-2.29 3.06-2.29 3.07.9 3.07 2.29-1.21 2.29-3.07 2.29"/>
  </g>
  <line id="baloon-string" fill="none" stroke="#FFFFFF" stroke-width="2" stroke-linecap="round" stroke-miterlimit="10" x1="107.65" y1="166.71" x2="107.65" y2="289.02"/>
  <g id="suitcase-bottom">
    <path fill="#A67EE5" d="M280.29 318.62a5.72 5.72 0 1 0-5.12-5.69 5.43 5.43 0 0 0 5.12 5.69"/>
    <ellipse fill="none" stroke="#FFFFFF" stroke-width="2" stroke-miterlimit="10" cx="280.29" cy="312.93" rx="5.12" ry="5.69"/>
    <path fill="#A67EE5" d="M230.22 328.86h-148c-6.514.056-11.851-5.157-11.95-11.67V289h171.89v28.17c-.093 6.512-5.428 11.726-11.94 11.67"/>
    <path fill="none" stroke="#FFFFFF" stroke-width="2" stroke-miterlimit="10" d="M230.22 328.86h-148c-6.514.056-11.851-5.157-11.95-11.67V289h171.89v28.17c-.082 6.52-5.42 11.746-11.94 11.69z"/>
    <path fill="#A67EE5" d="M266.72 328.86h-147c-6.492.033-11.793-5.179-11.87-11.67V289h170.73v28.17c-.066 6.492-5.368 11.709-11.86 11.67"/>
    <path fill="none" stroke="#FFFFFF" stroke-width="2" stroke-miterlimit="10" d="M266.72 328.86h-147c-6.492.033-11.793-5.179-11.87-11.67V289h170.73v28.17c-.055 6.5-5.36 11.729-11.86 11.69z"/>
    <path fill="#A67EE5" d="M215 314.07h-34.51a4.27 4.27 0 0 1-4.35-4.16v-11.7a1.24 1.24 0 0 1 1.259-1.22h2.891a1.25 1.25 0 0 1 1.27 1.22v10a1.33 1.33 0 0 0 1.35 1.29h29.71a1.33 1.33 0 0 0 1.35-1.29v-10a1.24 1.24 0 0 1 1.259-1.22h2.891a1.25 1.25 0 0 1 1.27 1.22v11.69a4.27 4.27 0 0 1-4.35 4.16"/>
    <path fill="none" stroke="#FFFFFF" stroke-width="2" stroke-miterlimit="10" d="M215 314.07h-34.51a4.27 4.27 0 0 1-4.35-4.16v-11.7a1.24 1.24 0 0 1 1.259-1.22h2.891a1.25 1.25 0 0 1 1.27 1.22v10a1.33 1.33 0 0 0 1.35 1.29h29.71a1.33 1.33 0 0 0 1.35-1.29v-10a1.24 1.24 0 0 1 1.259-1.22h2.891a1.25 1.25 0 0 1 1.27 1.22v11.69a4.27 4.27 0 0 1-4.367 4.171l-.023-.001z"/>
    <rect x="138.58" y="282.19" fill="#A67EE5" width="9.1" height="12.52"/>
    <rect x="138.58" y="282.19" fill="none" stroke="#FFFFFF" stroke-width="2" stroke-miterlimit="10" width="9.1" height="12.52"/>
    <rect x="247.85" y="282.19" fill="#A67EE5" width="9.1" height="12.52"/>
    <rect x="247.85" y="282.19" fill="none" stroke="#FFFFFF" stroke-width="2" stroke-miterlimit="10" width="9.1" height="12.52"/>
    <path fill="#A67EE5" d="M278.58 317.11v-9.87h-10.4a5.67 5.67 0 0 0-5.53 5.8v15.82h4.73c6.16 0 11.2-5.29 11.2-11.75"/>
    <path fill="none" stroke="#FFFFFF" stroke-width="2" stroke-miterlimit="10" d="M278.58 317.11v-9.87h-10.4a5.67 5.67 0 0 0-5.53 5.8v15.82h4.73c6.16 0 11.2-5.28 11.2-11.75z"/>
    <path fill="#A67EE5" d="M100 301.54H79.22a1 1 0 0 1-1-1V298a1 1 0 0 1 1-1H100a1 1 0 0 1 1 1v2.58a1 1 0 0 1-1 1"/>
    <path fill="none" stroke="#FFFFFF" stroke-width="2" stroke-miterlimit="10" d="M100 301.54H79.22a1 1 0 0 1-1-1V298a1 1 0 0 1 1-1H100a1 1 0 0 1 1 1v2.58a1 1 0 0 1-1 .96z"/>
  </g>
  <g id="bird" fill="#FFFFFF">
    <path id="bird-wings" d="M279.2 183.8a4.89 4.89 0 0 1 3.8-4.8l21.07-5.4c-7.78 14.84-19.18 15.07-20 15.07a4.9 4.9 0 0 1-4.85-4.9"/>
    <path id="bird-body" d="M262.24 169.86H273a4.65 4.65 0 0 1 4.41-2.9 3.909 3.909 0 0 1 3.48 1.76c.55.811 1.009 1.679 1.37 2.59.63 1.57 4 15.8 5.89 19.16 1.1 2 4.39 7.16 4.39 7.16.203.349.309.746.31 1.15V208s-3.11-1.08-3.11-3.91v-6.53c-1.91.27-6-1.65-8.33-2.88a12.818 12.818 0 0 1-6.36-6.76 12.328 12.328 0 0 1-.11-9.16 7.131 7.131 0 0 0 .79-2.91c-.06-1.14-1.39-2.72-2.18-4.05l-11.31-1.94z"/>
  </g>
  <g id="high-leaf">
    <path fill="none" stroke="#3B7BF2" stroke-width="2" stroke-linecap="round" stroke-linejoin="round" d="M141.77 204.16c24.1 32.45 35.81 84 35.81 84"/>
    <path fill="#76ABFF" d="M125.73 196.22c6.54 7.51 17.16 9 17.16 9s0-10.72-6.53-18.22-17.17-9-17.17-9 0 10.72 6.54 18.22"/>
    <path fill="#3B7BF2" d="M153.17 206.54c-2.69 9.58 1.91 19.27 1.91 19.27s9-5.86 11.67-15.45-1.91-19.27-1.91-19.27-9 5.86-11.67 15.45"/>
    <path fill="#3B7BF2" d="M135.82 227.71c9.59 2.7 19.26-1.91 19.26-1.91s-5.86-9-15.45-11.67-19.26 1.87-19.26 1.87 5.87 9 15.45 11.67"/>
    <path fill="#1553B7" d="M166.1 232.52c-3.41 9.36.47 19.35.47 19.35s9.39-5.18 12.79-14.53-.47-19.34-.47-19.34-9.39 5.18-12.79 14.53M147.22 252.35c9.36 3.4 19.35-.47 19.35-.47s-5.18-9.39-14.54-12.79-19.35.47-19.35.47 5.18 9.39 14.54 12.79"/>
  </g>
  <g id="low-leafs">
    <path fill="#3B7BF2" d="M183.79 264.77c2.3 9.1-2.27 18.12-2.27 18.12s-8.32-5.74-10.63-14.85 2.27-18.12 2.27-18.12 8.32 5.75 10.63 14.85"/>
    <path fill="#3B7BF2" d="M199.63 285.16c-9.11 2.31-18.12-2.27-18.12-2.27s5.74-8.32 14.85-10.63 18.12 2.27 18.12 2.27-5.75 8.32-14.85 10.63"/>
    <path fill="none" stroke="#3B7BF2" stroke-width="2" stroke-linecap="round" stroke-linejoin="round" d="M188.56 271.67a144.083 144.083 0 0 0-10.31 16.61"/>
    <path fill="#76ABFF" d="M203.69 264.19c-6.17 7.08-16.19 8.44-16.19 8.44s0-10.11 6.16-17.18 16.19-8.45 16.19-8.45 0 10.11-6.16 17.19"/>
  </g>
  <line id="bottom-line" fill="none" stroke="#FFFFFF" stroke-width="2" stroke-linecap="round" stroke-linejoin="round" x1="46.24" y1="329" x2="303.76" y2="329"/>
</svg>
