<svg xmlns="http://www.w3.org/2000/svg" viewBox="0 0 350 330" opacity="0">
  <animate attributeName="opacity" from="0" to="1" dur="0.5s" fill="freeze" />
  <g id="airship">
    <path class="st0" d="M175.4,249.3h48.4c6.3,0,11.8-4.5,13-10.6l3.7-18.3h-68.2v25.9C172.4,247.9,173.7,249.3,175.4,249.3z" fill="none" stroke="#FFFFFF" stroke-width="2" stroke-linecap="round" stroke-linejoin="round" />
    <path class="st1" d="M235.8,241.7h-9.2c-4.6,0-8.3-3.7-8.3-8.3v-13.1" fill="none" stroke="#FFFFFF" stroke-width="2" stroke-linecap="round" stroke-miterlimit="10" />
    <path class="st0" d="M204.2,231.9h-2.1c-1.9,0-3.4,1.6-3.4,3.4v2.9c0,1.9,1.5,3.4,3.4,3.4h2.1c1.9,0,3.4-1.6,3.4-3.4v-2.9
    C207.7,233.4,206.1,231.9,204.2,231.9L204.2,231.9z" fill="none" stroke="#FFFFFF" stroke-width="2" stroke-linecap="round" stroke-linejoin="round" />
    <path class="st0" d="M185.6,231.9h-2.1c-1.9,0-3.4,1.6-3.4,3.4v2.9c0,1.9,1.5,3.4,3.4,3.4h2.1c1.9,0,3.4-1.6,3.4-3.4v-2.9
    C189.1,233.4,187.5,231.9,185.6,231.9z" fill="none" stroke="#FFFFFF" stroke-width="2" stroke-linecap="round" stroke-linejoin="round" />
    <path class="st2" d="M205,227.1c43.4,0,74.9-15.6,74.9-37s-31.5-37-74.9-37c-27.9,0-55.4,13.5-73.5,24.9c-6.7,4.2-8.7,13-4.5,19.7
    c1.1,1.8,2.7,3.4,4.5,4.5C149.6,213.5,177.1,227,205,227.1" fill="#068E4D" />
    <path class="st3" d="M205,227.1c43.4,0,74.9-15.6,74.9-37s-31.5-37-74.9-37c-27.9,0-55.4,13.5-73.5,24.9c-6.7,4.2-8.7,13-4.5,19.7
    c1.1,1.8,2.7,3.4,4.5,4.5C149.6,213.5,177.1,227.1,205,227.1z" fill="none" stroke="#FFFFFF" stroke-width="2" />
    <path class="st4" d="M205,176.1c-28.2,0-56.1,5.8-72.8,10c-3.9,1-6,2.7-6.1,4.3c-0.2-4.6,2.1-9,6.1-11.4
    c16.7-10.5,44.6-24.7,72.8-24.7c44.8,0,73.6,16,73.6,35.8c0,0.1,0,0.2,0,0.4C278.3,182.5,249.5,176.1,205,176.1" fill="#36E69A" />
    <path class="st2" d="M132.2,195.1c16.7,4.3,44.6,10,72.8,10c44.1,0,72.8-6.3,73.6-14.2c-0.9,19.3-29.4,34.9-73.6,34.9
    c-28.2,0-56.1-14.2-72.8-24.7c-3.5-2.2-5.8-6-6-10.2C126.4,192.6,128.4,194.1,132.2,195.1" fill="#068E4D" />
    <path class="st5" d="M132.2,186.1c16.7-4.3,44.6-10,72.8-10c44.5,0,73.3,6.4,73.6,14.4c0,0.2,0,0.3,0,0.5
    c-0.9,7.9-29.4,14.2-73.6,14.2c-28.2,0-56.1-5.8-72.8-10c-3.8-1-5.8-2.5-6-4.1v-0.5c0.1-1.7,2.1-3.4,6.1-4.4" fill="#25B774" />
    <path class="st2" d="M123.2,173.3h9.2c1.8,0,3.3,1.5,3.3,3.3c0,0,0,0,0,0v5.7c0,1.8-1.5,3.3-3.3,3.3c0,0,0,0,0,0h-16.8
    c-0.7,0-1.3-0.6-1.3-1.3l0,0v-2C114.2,177.4,118.3,173.3,123.2,173.3" fill="#068E4D" />
    <path class="st0" d="M123.2,173.3h9.2c1.8,0,3.3,1.5,3.3,3.3c0,0,0,0,0,0v5.7c0,1.8-1.5,3.3-3.3,3.3c0,0,0,0,0,0h-16.8
    c-0.7,0-1.3-0.6-1.3-1.3l0,0v-2C114.3,177.4,118.3,173.4,123.2,173.3z" fill="none" stroke="#FFFFFF" stroke-width="2" stroke-linecap="round" stroke-linejoin="round" />
    <path class="st2" d="M123.2,207.4h9.2c1.8,0,3.3-1.5,3.3-3.3c0,0,0,0,0,0v-5.7c0-1.8-1.5-3.3-3.3-3.3c0,0,0,0,0,0h-16.8
    c-0.7,0-1.3,0.6-1.3,1.3l0,0v2C114.2,203.4,118.3,207.4,123.2,207.4" fill="#068E4D" />
    <path class="st0" d="M123.2,207.4h9.2c1.8,0,3.3-1.5,3.3-3.3c0,0,0,0,0,0v-5.7c0-1.8-1.5-3.3-3.3-3.3c0,0,0,0,0,0h-16.8
    c-0.7,0-1.3,0.6-1.3,1.3l0,0v2C114.3,203.4,118.3,207.4,123.2,207.4z" fill="none" stroke="#FFFFFF" stroke-width="2" stroke-linecap="round" stroke-linejoin="round" />
    <path class="st2" d="M123.2,173.3h9.2c1.8,0,3.3,1.5,3.3,3.3c0,0,0,0,0,0v5.7c0,1.8-1.5,3.3-3.3,3.3c0,0,0,0,0,0h-16.8
    c-0.7,0-1.3-0.6-1.3-1.3l0,0v-2C114.2,177.4,118.3,173.3,123.2,173.3" fill="#068E4D" />
    <path class="st0" d="M123.2,173.3h9.2c1.8,0,3.3,1.5,3.3,3.3c0,0,0,0,0,0v5.7c0,1.8-1.5,3.3-3.3,3.3c0,0,0,0,0,0h-16.8
    c-0.7,0-1.3-0.6-1.3-1.3l0,0v-2C114.3,177.4,118.3,173.4,123.2,173.3z" fill="none" stroke="#FFFFFF" stroke-width="2" stroke-linecap="round" stroke-linejoin="round" />
    <path class="st2" d="M123.2,207.4h9.2c1.8,0,3.3-1.5,3.3-3.3c0,0,0,0,0,0v-5.7c0-1.8-1.5-3.3-3.3-3.3c0,0,0,0,0,0h-16.8
    c-0.7,0-1.3,0.6-1.3,1.3l0,0v2C114.2,203.4,118.3,207.4,123.2,207.4" fill="#068E4D" />
    <path class="st0" d="M123.2,207.4h9.2c1.8,0,3.3-1.5,3.3-3.3c0,0,0,0,0,0v-5.7c0-1.8-1.5-3.3-3.3-3.3c0,0,0,0,0,0h-16.8
    c-0.7,0-1.3,0.6-1.3,1.3l0,0v2C114.3,203.4,118.3,207.4,123.2,207.4z" fill="none" stroke="#FFFFFF" stroke-width="2" stroke-linecap="round" stroke-linejoin="round" />
  </g>
  <g id="cloud-left">
    <line id="line_00000056423133864566322440000002804354149317911948_" class="st1" x1="68.9" y1="107.8" x2="131.9" y2="107.8" fill="none" stroke="#FFFFFF" stroke-width="2" stroke-linecap="round" stroke-miterlimit="10" />
    <path id="curve_00000077311339434911469070000003653972642377872573_" class="st1" d="M41.8,97.5h35.3c0-6.8,5.6-12.4,12.4-12.4
    s12.4,5.6,12.4,12.4h17.9" fill="none" stroke="#FFFFFF" stroke-width="2" stroke-linecap="round" stroke-miterlimit="10" />
  </g>
  <g id="cloud-right">
    <line id="line-long" class="st1" x1="259" y1="93.2" x2="298.7" y2="93.2" fill="none" stroke="#FFFFFF" stroke-width="2" stroke-linecap="round" stroke-miterlimit="10" />
    <path id="curve_00000021089980416569389680000016339792187218588838_" class="st1" d="M278.8,82.9h-27.4c0-6.8-5.6-12.4-12.4-12.4
    c-6.8,0-12.4,5.6-12.4,12.4l0,0h-17.9" fill="none" stroke="#FFFFFF" stroke-width="2" stroke-linecap="round" stroke-miterlimit="10" />
    <line id="line-short" class="st1" x1="287" y1="82.9" x2="309.2" y2="82.9" fill="none" stroke="#FFFFFF" stroke-width="2" stroke-linecap="round" stroke-miterlimit="10" />
  </g>
  <g id="tails" clip-path="url(#tail-clip)">
    <line id="tail-top" class="st1" x1="106.2" y1="179.5" x2="84.1" y2="179.5" fill="none" stroke="#FFFFFF" stroke-width="2" stroke-linecap="round" stroke-miterlimit="10">
      <animateTransform
        attributeName="transform"
        type="translate"
        values="1 0; 10 0; 1 0"
        keyTimes="0; 0.5; 1" dur="0.15s"
        repeatCount="indefinite"
      />
    </line>
    <line id="tail-bottom" class="st1" x1="106.2" y1="201.2" x2="84.1" y2="201.2" fill="none" stroke="#FFFFFF" stroke-width="2" stroke-linecap="round" stroke-miterlimit="10">
      <animateTransform
        attributeName="transform"
        type="translate"
        values="1 0; 10 0; 1 0"
        keyTimes="0; 0.5; 1" dur="0.25s"
        repeatCount="indefinite"
      />
    </line>
    <line id="tail-middle" class="st1" x1="106.2" y1="191" x2="68.8" y2="191" fill="none" stroke="#FFFFFF" stroke-width="2" stroke-linecap="round" stroke-miterlimit="10">
      <animateTransform
        attributeName="transform"
        type="translate"
        values="1 0; 10 0; 1 0"
        keyTimes="0; 0.5; 1"
        dur="0.2s"
        repeatCount="indefinite"
      />
    </line>
  </g>
  <g id="mountain">
    <path id="curve" class="st1" d="M289.9,327.9h-45.1l-32.1-31.3c-0.7-0.6-1.7-0.6-2.4,0l-10.2,10.2c-0.6,0.6-1.6,0.6-2.2,0l-19-20.2
    c-0.9-0.8-2.2-0.8-3.1,0l-26.4,25.6c-0.6,0.6-1.6,0.6-2.2,0l-2.6-2.9c-0.7-0.6-1.7-0.6-2.3,0L124.6,329H80.8" fill="none" stroke="#FFFFFF" stroke-width="2" stroke-linecap="round" stroke-miterlimit="10" />
    <path id="line" class="st1" d="M289.9,328h-89.8c-0.9,0-1.6,0-2.2,0h-19c-1.5,0-2.2,0-3.1,0h-32.3c-1.1,0-1.7,0-2.3,0H80.8" fill="none" stroke="#FFFFFF" stroke-width="2" stroke-linecap="round" stroke-miterlimit="10" />
  </g>
  <clipPath id="tail-clip">
    <rect x="68.77" y="179.49" width="39" height="33" stroke="black" transform="translate(0 -5)"/>
  </clipPath>
</svg>
